<?xml version="1.0" encoding="utf-8"?><!DOCTYPE svg PUBLIC "-//W3C//DTD SVG 1.1//EN" "http://www.w3.org/Graphics/SVG/1.1/DTD/svg11.dtd"><svg version="1.1" xmlns="http://www.w3.org/2000/svg" xmlns:xlink="http://www.w3.org/1999/xlink" x="0px" y="0px" viewBox="0 0 100 72.77250000000001" enable-background="new 0 0 100 58.218" xml:space="preserve"><g><path fill="#010101" d="M81.112,20.445c-2.715,0-5.295,0.577-7.627,1.608l-1.032-2.479c0.178-0.417,0.193-0.902,0.005-1.353
		l-1.905-4.574c-0.187-0.444-0.534-0.772-0.946-0.943l-2.504-6.196l2.838-1.114c0.63-0.246,0.939-0.957,0.693-1.586
		s-0.957-0.941-1.587-0.692l-1.076,0.422C66.655,1.169,65.054,0,63.081,0h-3.498c-0.676,0-1.225,0.547-1.225,1.224
		c0,0.675,0.548,1.224,1.225,1.224h3.498c0.364,0,1.399,0.006,2.592,1.989l-2.572,1.009c-0.631,0.248-0.94,0.958-0.693,1.587
		c0.19,0.482,0.651,0.777,1.14,0.777c0.148,0,0.302-0.028,0.447-0.085l0.827-0.324l0.409,1.012
		c-2.475,1.32-15.056,8.018-17.206,8.938c-0.351,0.15-0.693,0.324-1.042,0.5c-1.886,0.953-3.846,1.926-9.616-0.953L33.232,4.337
		l-2.326,0.766l6.826,20.731l-3.663,2.263c-3.44-4.642-8.959-7.654-15.181-7.654C8.457,20.444,0,28.901,0,39.332
		c0,10.432,8.457,18.887,18.888,18.887c10.086,0,18.324-7.907,18.858-17.859l1.031-0.012c0.557,2.02,2.404,3.506,4.603,3.506
		c2.233,0,4.104-1.535,4.629-3.605l5.925-0.063c0.676-0.008,1.219-0.562,1.209-1.237c-0.006-0.671-0.552-1.21-1.224-1.21
		c-0.003,0-0.007,0-0.012,0l-5.925,0.062c-0.136-0.498-0.349-0.962-0.629-1.38l19.9-22.547c-0.096,0.358-0.083,0.75,0.069,1.119
		l1.908,4.573c0.187,0.45,0.543,0.777,0.961,0.947l1.114,2.674c-5.444,3.315-9.081,9.305-9.081,16.146
		c0,10.432,8.457,18.886,18.888,18.886S100,49.761,100,39.331C100,28.901,91.543,20.445,81.112,20.445z M66.354,11.193
		l-20.84,23.611c-0.643-0.323-1.367-0.51-2.136-0.51c-0.095,0-0.188,0.009-0.28,0.015l-2.269-6.893l3.578-2.211
		c0.485-0.3,0.767-0.8,0.816-1.327l1.474-0.911c0.096-0.06,0.176-0.135,0.245-0.217c2.961-1.809,3.908-2.801,3.641-3.907
		c4.011-1.993,13.042-6.8,15.568-8.146L66.354,11.193z M43.678,21.273c0.794,0,1.473-0.11,2.083-0.275l0.042,0.086
		c-0.071,0.024-0.141,0.055-0.207,0.097l-1.475,0.911c-0.493-0.191-1.066-0.163-1.549,0.136L39.705,24l-1.297-3.94
		C40.607,20.949,42.308,21.273,43.678,21.273z M38.519,28.227l2.253,6.845c-0.991,0.646-1.724,1.651-2.021,2.83l-1.035,0.011
		c-0.208-2.8-1.023-5.429-2.319-7.755L38.519,28.227z M22.583,38.075l9.473-5.854c0.938,1.733,1.542,3.673,1.729,5.733
		L22.583,38.075z M18.895,54.284c-8.259,0-14.954-6.696-14.954-14.956c0-8.258,6.695-14.954,14.954-14.954
		c4.81,0,9.084,2.272,11.82,5.798l-9.708,5.999c-0.598-0.397-1.316-0.63-2.088-0.63c-2.085,0-3.775,1.689-3.775,3.775
		c0,0.66,0.17,1.279,0.468,1.819c-0.698,0.283-1.193,0.966-1.193,1.768c0,1.054,0.855,1.906,1.908,1.906
		c1.012,0,1.833-0.789,1.896-1.785c0.227,0.042,0.459,0.067,0.698,0.067c1.662,0,3.07-1.075,3.573-2.565l11.315-0.123
		C33.256,48.16,26.793,54.284,18.895,54.284z M81.121,54.284c-8.259,0-14.956-6.696-14.956-14.956c0-5.004,2.463-9.431,6.236-12.146
		l5.739,13.772c0.278,0.672,0.93,1.077,1.615,1.077c0.225,0,0.452-0.043,0.672-0.134c0.688-0.287,1.093-0.962,1.071-1.668
		c0.352-0.146,0.598-0.495,0.598-0.898c0-0.539-0.438-0.976-0.976-0.976c-0.09,0-0.177,0.017-0.259,0.039l-5.379-12.916
		c1.74-0.709,3.644-1.103,5.639-1.103c8.26,0,14.954,6.696,14.954,14.956C96.076,47.588,89.379,54.284,81.121,54.284z"/><path fill="#010101" d="M23.95,2.252c1.031,0,3.9,1.544,5.26,1.544s4.045-1.362,4.818-1.362s3.9,0.736,5.812,0.736
		c1.912,0-0.626-1.985-2.134-1.985c-1.508,0-13.977,0-13.977,0C22.92,1.186,22.921,2.252,23.95,2.252z"/></g><text x="0" y="73.218" fill="#000000" font-size="5px" font-weight="bold" font-family="'Helvetica Neue', Helvetica, Arial-Unicode, Arial, Sans-serif">Created by Marc Serre</text><text x="0" y="78.218" fill="#000000" font-size="5px" font-weight="bold" font-family="'Helvetica Neue', Helvetica, Arial-Unicode, Arial, Sans-serif">from the Noun Project</text></svg>