<?xml version="1.0" standalone="no"?>
<!DOCTYPE svg PUBLIC "-//W3C//DTD SVG 20010904//EN"
 "http://www.w3.org/TR/2001/REC-SVG-20010904/DTD/svg10.dtd">
<svg version="1.0" xmlns="http://www.w3.org/2000/svg"
 width="1280.000000pt" height="752.000000pt" viewBox="0 0 1280.000000 752.000000"
 preserveAspectRatio="xMidYMid meet">
<metadata>
Created by potrace 1.15, written by Peter Selinger 2001-2017
</metadata>
<g transform="translate(0.000000,752.000000) scale(0.100000,-0.100000)"
fill="#000000" stroke="none">
<path d="M7540 7497 c-99 -66 -96 -213 5 -274 27 -16 61 -19 315 -23 249 -4
290 -7 321 -23 56 -28 117 -84 170 -156 l48 -65 -170 -67 c-93 -36 -180 -74
-195 -84 -39 -25 -67 -97 -59 -151 17 -114 132 -164 264 -114 29 12 55 20 56
18 6 -6 46 -111 43 -113 -2 -2 -230 -123 -508 -270 -1181 -625 -1862 -968
-2025 -1021 -168 -55 -365 -41 -615 42 -118 39 -374 150 -388 167 -6 7 -128
370 -272 807 -144 437 -264 797 -266 800 -3 2 -73 -19 -157 -46 -103 -35 -152
-55 -151 -65 1 -8 196 -605 434 -1327 237 -722 430 -1315 428 -1316 -32 -28
-452 -276 -457 -270 -4 5 -35 43 -68 84 -83 103 -288 300 -403 387 -579 437
-1324 593 -2035 426 -699 -164 -1293 -640 -1611 -1288 -121 -247 -204 -529
-235 -805 -17 -152 -6 -533 20 -671 72 -390 221 -736 446 -1038 382 -511 932
-841 1580 -948 156 -26 561 -26 725 0 429 67 835 246 1170 513 109 88 287 266
370 372 156 199 303 460 385 685 65 177 116 409 133 602 l7 80 55 3 55 3 40
-88 c33 -74 53 -101 125 -174 130 -131 249 -180 435 -180 161 0 281 42 402
140 71 58 152 173 184 261 l21 59 397 3 c379 3 398 4 431 24 109 63 109 215 0
278 -34 20 -46 21 -437 17 -340 -3 -403 -1 -403 11 0 7 -16 46 -35 87 l-35 73
32 37 c18 21 584 662 1258 1425 l1225 1387 3 -43 c3 -41 245 -641 281 -697 8
-13 35 -38 59 -56 41 -30 50 -44 113 -195 38 -90 67 -164 66 -165 -1 -1 -40
-27 -87 -57 -275 -182 -547 -466 -719 -751 -414 -686 -463 -1527 -133 -2266
65 -143 161 -304 270 -451 104 -139 330 -367 465 -469 327 -245 689 -399 1102
-468 171 -28 594 -26 765 5 263 47 454 109 685 222 235 114 416 243 614 435
213 207 350 395 481 660 118 239 186 450 225 697 14 90 16 162 12 425 -4 349
-13 417 -88 658 -325 1053 -1314 1756 -2409 1711 -293 -12 -545 -63 -794 -160
-50 -20 -90 -35 -91 -33 -1 1 -29 70 -63 152 -59 143 -61 152 -51 196 6 29 7
60 1 85 -15 63 -262 646 -289 683 -14 18 -40 42 -58 52 -30 18 -45 52 -190
410 -87 214 -156 391 -154 394 2 2 87 36 189 76 204 80 240 104 259 177 17 60
0 111 -48 155 -66 59 -123 58 -282 -8 -13 -5 -30 14 -74 82 -76 116 -199 237
-291 285 -121 64 -152 68 -490 68 -296 0 -302 0 -334 -23z m932 -1418 c-13
-20 -2561 -2910 -2616 -2966 l-31 -32 -59 20 c-33 11 -100 26 -150 32 l-90 13
-142 432 -142 432 132 82 c72 44 182 112 244 150 120 74 156 112 176 180 12
38 22 48 108 103 467 295 588 405 588 537 l0 43 193 99 c330 170 915 475 1357
710 398 211 426 224 434 205 7 -14 6 -27 -2 -40z m-3185 -1249 c137 -30 288
-41 405 -30 56 6 110 12 120 16 35 11 17 -3 -69 -56 -85 -52 -88 -53 -158 -51
-39 1 -84 -3 -99 -9 -15 -5 -109 -60 -207 -121 -99 -62 -182 -109 -185 -107
-5 5 -154 448 -154 458 0 3 58 -14 130 -37 71 -24 169 -52 217 -63z m-2712
-441 c401 -35 764 -186 1078 -449 104 -87 272 -269 259 -281 -4 -5 -279 -176
-612 -382 l-605 -373 -60 28 c-241 112 -537 9 -650 -227 -60 -125 -67 -286
-16 -401 l18 -41 -46 -34 c-122 -90 -134 -267 -26 -375 43 -43 117 -74 175
-74 101 0 208 75 239 168 l18 54 89 3 c94 4 175 26 248 69 63 37 142 123 178
193 l33 63 110 1 c61 0 380 4 710 8 330 4 602 6 604 4 9 -6 -23 -207 -49 -310
-198 -787 -852 -1354 -1662 -1442 -685 -75 -1372 251 -1770 839 -373 552 -425
1288 -134 1885 230 470 628 820 1121 984 251 83 494 113 750 90z m8093 -15
c597 -89 1120 -463 1407 -1006 246 -465 283 -1028 101 -1531 -162 -449 -507
-836 -937 -1053 -314 -158 -701 -230 -1037 -193 -458 49 -882 257 -1188 581
-655 692 -707 1737 -126 2488 75 97 229 253 318 322 l60 46 368 -881 c202
-485 379 -899 393 -919 50 -73 163 -106 266 -77 61 16 122 83 142 154 11 37
31 75 51 98 27 30 34 45 34 80 0 47 -27 99 -60 117 -11 6 -39 14 -61 18 l-40
7 -340 814 c-251 604 -336 817 -326 823 6 4 61 24 121 43 276 88 569 112 854
69z m-5596 -913 l140 -424 -33 -25 c-89 -67 -169 -177 -205 -279 -16 -46 -22
-53 -45 -53 -15 0 -41 -3 -58 -6 -29 -6 -31 -4 -31 21 0 50 -31 238 -57 350
-36 155 -103 344 -173 492 -34 70 -57 129 -53 131 4 1 87 52 183 112 96 60
179 108 183 107 5 -2 72 -193 149 -426z m-923 -171 c77 -166 143 -395 165
-571 l5 -47 -382 -6 c-661 -11 -1019 -12 -1005 -3 324 204 1156 715 1164 716
6 1 30 -39 53 -89z"/>
<path d="M2977 7352 c-23 -25 -22 -75 3 -97 12 -11 47 -22 83 -27 60 -8 108
-24 432 -139 144 -52 154 -54 250 -53 99 0 103 1 340 82 147 50 256 82 281 82
22 0 123 -14 225 -30 341 -57 531 -72 584 -48 67 30 -13 129 -163 201 l-87 42
-966 3 c-928 2 -966 2 -982 -16z"/>
</g>
</svg>
